# xmcd CD database file
#
# Track frame offsets:
#	150
#	12667
#	23004
#	35997
#	50997
#	61177
#	79396
#	91280
#	102083
#	115045
#	125242
#	137997
#	153006
#	159241
#	179553
#	196654
#
# Disc length: 3010 seconds
#
# Revision: 0
# Processed by: cddbd v1.5.2PL0 Copyright (c) Steve Scherf et al.
# Submitted via: CDex 1.51
#
DISCID=d90bc010
DTITLE=Salzburg Quintett -  Moch' aa wieda Musi
DYEAR=2006
DGENRE=Volkstümlich
TTITLE0=Salzburg Quintett - Moch´ ma wieda Musi
TTITLE1=Salzburg Quintett - Beim Sandwirt
TTITLE2=Salzburg Quintett - In Pepi´s Weinkeller
TTITLE3=Salzburg Quintett - Schenk mir dein Herz
TTITLE4=Salzburg Quintett - Alpengold Polka
TTITLE5=Salzburg Quintett - Sorgenkind
TTITLE6=Salzburg Quintett - Den Inn entlang
TTITLE7=Salzburg Quintett - Beim Hoffest
TTITLE8=Salzburg Quintett - Da Madlschmeissa´
TTITLE9=Salzburg Quintett - Carpe Diem
TTITLE10=Salzburg Quintett - Salzburger Tastennockerl
TTITLE11=Salzburg Quintett - Die Farben der Liebe
TTITLE12=Salzburg Quintett - Trompetenpolka
TTITLE13=Salzburg Quintett - Polkakugel
TTITLE14=Salzburg Quintett - So weit so gut
TTITLE15=Salzburg Quintett - Grazer Melodienstrauß
EXTD=YEAR: 2006
EXTT0=
EXTT1=
EXTT2=
EXTT3=
EXTT4=
EXTT5=
EXTT6=
EXTT7=
EXTT8=
EXTT9=
EXTT10=
EXTT11=
EXTT12=
EXTT13=
EXTT14=
EXTT15=
PLAYORDER=
